<svg width="216px" height="25px" viewBox="0 0 216 25" version="1.1" xmlns="http://www.w3.org/2000/svg" xmlns:xlink="http://www.w3.org/1999/xlink">
   <g stroke="none" stroke-width="1" fill="none" fill-rule="evenodd">
       <g transform="translate(-880.000000, -189.000000)" fill="#ca6f1d">
           <g id="Group-18" transform="translate(856.000000, 88.000000)">
               <g id="Group-41" transform="translate(24.000000, 101.000000)">
                   <polygon id="Rectangle-10" points="0 3 8 3 8 25 0 25"></polygon>
                   <rect id="Rectangle-10" x="26" y="16" width="8" height="9"></rect>
                   <rect id="Rectangle-10-Copy-10" x="39" y="13" width="8" height="12"></rect>
                   <rect id="Rectangle-10-Copy-11" x="52" y="19" width="8" height="6"></rect>
                   <rect id="Rectangle-10-Copy-12" x="117" y="13" width="8" height="12"></rect>
                   <polygon id="Rectangle-10-Copy-5" points="13 11 21 11 21 25 13 25"></polygon>
                   <polygon id="Rectangle-10" points="65 16 73 16 73 25 65 25"></polygon>
                   <polygon id="Rectangle-10" points="91 0 99 0 99 25 91 25"></polygon>
                   <polygon id="Rectangle-10-Copy-6" points="78 11 86 11 86 25 78 25"></polygon>
                   <polygon id="Rectangle-10-Copy-13" points="143 16 151 16 151 25 143 25"></polygon>
                   <polygon id="Rectangle-10-Copy-3" points="182 12.5 190 12.5 190 25 182 25"></polygon>
                   <polygon id="Rectangle-10-Copy-14" points="156 12.5 164 12.5 164 25 156 25"></polygon>
                   <polygon id="Rectangle-10-Copy-9" points="169 7.5 177 7.5 177 25 169 25"></polygon>
                   <polygon id="Rectangle-10-Copy-8" points="195 9 203 9 203 25 195 25"></polygon>
                   <polygon id="Rectangle-10-Copy-7" points="104 19 112 19 112 25 104 25"></polygon>
                   <polygon id="Rectangle-10-Copy-4" points="208 0 216 0 216 25 208 25"></polygon>
                   <polygon id="Rectangle-10" points="130 22 138 22 138 24 130 24"></polygon>
               </g>
           </g>
       </g>
   </g>
</svg>