<!-- <svg width="216px" height="18px" viewBox="0 0 216 18" version="1.1" xmlns="http://www.w3.org/2000/svg" xmlns:xlink="http://www.w3.org/1999/xlink">
   <g stroke="none" stroke-width="1" fill="none" fill-rule="evenodd">
       <g transform="translate(-1173.000000, -196.000000)">
           <g id="Group-19" transform="translate(1149.000000, 88.000000)">
               <g id="Group-42" transform="translate(24.000000, 108.000000)">
                   <path d="M1,5 L215,5 C215.552285,5 216,5.44771525 216,6 L216,12 C216,12.5522847 215.552285,13 215,13 L1,13 C0.44771525,13 6.76353751e-17,12.5522847 0,12 L0,6 C-6.76353751e-17,5.44771525 0.44771525,5 1,5 Z" id="Rectangle-16-Copy-3" fill="#F0F2F5"></path>
                   <path d="M1,5.00043655 L139,5.00043655 L139,13.0004365 L1,13.0004365 C0.44771525,13.0004365 6.76353751e-17,12.5527213 0,12.0004365 L0,6.00043655 C-6.76353751e-17,5.4481518 0.44771525,5.00043655 1,5.00043655 Z" id="Rectangle-16-Copy-4" fill="#13C2C2"></path>
                   <rect id="Rectangle-27-Copy-2" fill="#76d7c3" x="149" y="0" width="2" height="4" rx="1"></rect>
                   <rect id="Rectangle-27-Copy-3" fill="#76d7c3" x="149" y="14" width="2" height="4" rx="1"></rect>
               </g>
           </g>
       </g>
   </g>
</svg> -->
<svg width="216px" height="25px" viewBox="0 0 216 25" version="1.1" xmlns="http://www.w3.org/2000/svg" xmlns:xlink="http://www.w3.org/1999/xlink">
   <g id="" stroke="none" stroke-width="1" fill="none" fill-rule="evenodd">
       <g id="" transform="translate(-592.000000, -189.000000)" fill="#76d7c3">
           <g id="Group-29" transform="translate(568.000000, 88.000000)">
               <g id="Group-17">
                   <path d="M24,120.549013 C26.6538681,121.468611 29.7655278,121.92841 33.334979,121.92841 C38.6891558,121.92841 40.6636941,116.731961 42.8879914,115.820011 C45.9880272,114.549013 47.0754474,116.142894 53.8099773,115.320384 C56.7178276,114.965239 58.2213999,102.953107 61.439742,102.953107 C64.658084,102.953107 68.0598364,119.346815 73.1691856,119.346815 C78.2785348,119.346815 79.8909434,114.965239 85.8821177,114.965239 C91.873292,114.965239 92.285702,108.159385 97.3246757,108.159385 C102.363649,108.159385 104.23661,108.159385 107.143405,108.159385 C110.0502,108.159385 111.468834,113.92841 115.172582,113.92841 C118.876329,113.92841 120.711182,111.499711 123.447208,111.499711 C126.183235,111.499711 125.686099,121.92841 133.409245,121.92841 C141.132391,121.92841 149.889318,122.429396 152.849036,121.070112 C155.808755,119.710829 159.862293,113.046422 165.238808,112.661962 C170.615323,112.277502 170.404537,100.868364 174.733515,101.00115 C179.062492,101.133936 180.388396,118.700996 186.595247,118.700996 C192.802097,118.700996 192.923101,113.464205 196.752492,113.464205 C200.581883,113.464205 201.835075,122.990778 208.349811,122.990778 C214.864546,122.990778 218.372319,122.990778 224.449384,122.990778 C230.526449,122.990778 231.449731,120.549013 233.445994,120.549013 C234.776837,120.549013 236.961505,122.366009 240,126 L24,126 L24,120.549013 Z" id="Rectangle-17-Copy"></path>
               </g>
           </g>
       </g>
   </g>
</svg>