<?xml version="1.0" encoding="UTF-8"?>
<!DOCTYPE svg PUBLIC "-//W3C//DTD SVG 1.1//EN" "http://www.w3.org/Graphics/SVG/1.1/DTD/svg11.dtd">
<!-- Creator: CorelDRAW 2019 (64-Bit Evaluation Version) -->
<svg xmlns="http://www.w3.org/2000/svg" xml:space="preserve" width="1.5em" height="1.5em" version="1.1" style="shape-rendering:geometricPrecision; text-rendering:geometricPrecision; image-rendering:optimizeQuality; fill-rule:evenodd; clip-rule:evenodd"
viewBox="0 0 10666.66 8000"
 xmlns:xlink="http://www.w3.org/1999/xlink"
 xmlns:xodm="http://www.corel.com/coreldraw/odm/2003">
 <defs>
  <style type="text/css">
   <![CDATA[
    .fil0 {fill:#E32324}
   ]]>
  </style>
 </defs>
 <g id="Layer_x0020_1">
  <metadata id="CorelCorpID_0Corel-Layer"/>
  <path class="fil0" d="M3323.5 2076.98c1016.99,-1016.99 2665.86,-1016.99 3682.85,0 1016.99,1016.99 1016.99,2665.86 0,3682.85 -1016.99,1016.99 -2665.86,1016.99 -3682.85,0 -1016.99,-1016.99 -1016.99,-2665.86 0,-3682.85zm1841.43 -1261.01c419.4,0 820,83.67 1185.97,235.26 380.49,157.6 722.28,387.94 1007.77,673.43 285.49,285.49 515.83,627.28 673.43,1007.77 151.59,365.97 235.26,766.57 235.26,1185.97 0,419.4 -83.67,820 -235.26,1185.97 -157.6,380.49 -387.94,722.28 -673.43,1007.77 -285.49,285.49 -627.28,515.83 -1007.77,673.43 -365.97,151.59 -766.57,235.26 -1185.97,235.26 -419.4,0 -820,-83.67 -1185.97,-235.26 -380.49,-157.6 -722.28,-387.94 -1007.77,-673.43 -285.49,-285.49 -515.83,-627.28 -673.43,-1007.77 -151.59,-365.97 -235.26,-766.57 -235.26,-1185.97 0,-419.4 83.67,-820 235.26,-1185.97 157.6,-380.49 387.94,-722.28 673.43,-1007.77 285.49,-285.49 627.28,-515.83 1007.77,-673.43 365.97,-151.59 766.57,-235.26 1185.97,-235.26zm2004.7 1097.73c-261.94,-261.94 -574.01,-472.64 -920.07,-615.98 -333.5,-138.14 -699.81,-214.38 -1084.64,-214.38 -384.82,0 -751.13,76.24 -1084.64,214.38 -346.06,143.34 -658.13,354.05 -920.07,615.98 -261.94,261.94 -472.64,574.01 -615.98,920.07 -138.14,333.5 -214.38,699.81 -214.38,1084.64 0,384.82 76.24,751.13 214.38,1084.64 143.34,346.06 354.05,658.13 615.98,920.07 261.94,261.94 574.01,472.64 920.07,615.98 333.5,138.14 699.81,214.38 1084.64,214.38 384.83,0 751.13,-76.24 1084.64,-214.38 346.06,-143.34 658.13,-354.05 920.07,-615.98 261.94,-261.94 472.64,-574.01 615.98,-920.07 138.14,-333.5 214.38,-699.81 214.38,-1084.64 0,-384.83 -76.24,-751.13 -214.38,-1084.64 -143.34,-346.06 -354.05,-658.13 -615.98,-920.07zm-964.66 3738.11l-1031.72 -1031.72 -1042.82 1042.82 -710 -710.01 1042.82 -1042.82 -1031.72 -1031.72 693.36 -693.36 1031.72 1031.72 1042.82 -1042.82 710 710.01 -1042.82 1042.82 1031.72 1031.72 -693.36 693.36z"/>
 </g>
</svg>
