<svg width="19" height="19" viewBox="0 0 19 19" fill="none" xmlns="http://www.w3.org/2000/svg">
    <path fill-rule="evenodd" clip-rule="evenodd" d="M1.31337 10.4135C1.68464 10.4135 1.98562 10.7145 1.98562 11.0857V17.8083C1.98562 18.1795 1.68464 18.4805 1.31337 18.4805C0.942091 18.4805 0.641113 18.1795 0.641113 17.8083V11.0857C0.641113 10.7145 0.942091 10.4135 1.31337 10.4135Z" fill="#6B4FDB"/>
    <path fill-rule="evenodd" clip-rule="evenodd" d="M5.34688 3.69096C5.71815 3.69096 6.01913 3.99194 6.01913 4.36321V17.8083C6.01913 18.1795 5.71815 18.4805 5.34688 18.4805C4.9756 18.4805 4.67463 18.1795 4.67463 17.8083V4.36321C4.67463 3.99194 4.9756 3.69096 5.34688 3.69096Z" fill="#6B4FDB"/>
    <path fill-rule="evenodd" clip-rule="evenodd" d="M9.38039 1.00195C9.75166 1.00195 10.0526 1.30293 10.0526 1.67421L10.0526 17.8083C10.0526 18.1795 9.75166 18.4805 9.38039 18.4805C9.00911 18.4805 8.70813 18.1795 8.70813 17.8083L8.70813 1.67421C8.70813 1.30293 9.00911 1.00195 9.38039 1.00195Z" fill="#6B4FDB"/>
    <path fill-rule="evenodd" clip-rule="evenodd" d="M13.4139 8.39673C13.7852 8.39673 14.0862 8.69771 14.0862 9.06898V17.8083C14.0862 18.1795 13.7852 18.4805 13.4139 18.4805C13.0426 18.4805 12.7417 18.1795 12.7417 17.8083V9.06898C12.7417 8.69771 13.0426 8.39673 13.4139 8.39673Z" fill="#6B4FDB"/>
    <path fill-rule="evenodd" clip-rule="evenodd" d="M17.4474 13.7747C17.8187 13.7747 18.1197 14.0757 18.1197 14.447V17.8083C18.1197 18.1795 17.8187 18.4805 17.4474 18.4805C17.0761 18.4805 16.7752 18.1795 16.7752 17.8083V14.447C16.7752 14.0757 17.0761 13.7747 17.4474 13.7747Z" fill="#6B4FDB"/>
    <path fill-rule="evenodd" clip-rule="evenodd" d="M1.31337 10.4135C1.68464 10.4135 1.98562 10.7145 1.98562 11.0857V17.8083C1.98562 18.1795 1.68464 18.4805 1.31337 18.4805C0.942091 18.4805 0.641113 18.1795 0.641113 17.8083V11.0857C0.641113 10.7145 0.942091 10.4135 1.31337 10.4135Z" stroke="#6B4FDB" stroke-width="0.919924" stroke-linecap="round"/>
    <path fill-rule="evenodd" clip-rule="evenodd" d="M5.34688 3.69096C5.71815 3.69096 6.01913 3.99194 6.01913 4.36321V17.8083C6.01913 18.1795 5.71815 18.4805 5.34688 18.4805C4.9756 18.4805 4.67463 18.1795 4.67463 17.8083V4.36321C4.67463 3.99194 4.9756 3.69096 5.34688 3.69096Z" stroke="#6B4FDB" stroke-width="0.919924" stroke-linecap="round"/>
    <path fill-rule="evenodd" clip-rule="evenodd" d="M9.38039 1.00195C9.75166 1.00195 10.0526 1.30293 10.0526 1.67421L10.0526 17.8083C10.0526 18.1795 9.75166 18.4805 9.38039 18.4805C9.00911 18.4805 8.70813 18.1795 8.70813 17.8083L8.70813 1.67421C8.70813 1.30293 9.00911 1.00195 9.38039 1.00195Z" stroke="#6B4FDB" stroke-width="0.919924" stroke-linecap="round"/>
    <path fill-rule="evenodd" clip-rule="evenodd" d="M13.4139 8.39673C13.7852 8.39673 14.0862 8.69771 14.0862 9.06898V17.8083C14.0862 18.1795 13.7852 18.4805 13.4139 18.4805C13.0426 18.4805 12.7417 18.1795 12.7417 17.8083V9.06898C12.7417 8.69771 13.0426 8.39673 13.4139 8.39673Z" stroke="#6B4FDB" stroke-width="0.919924" stroke-linecap="round"/>
    <path fill-rule="evenodd" clip-rule="evenodd" d="M17.4474 13.7747C17.8187 13.7747 18.1197 14.0757 18.1197 14.447V17.8083C18.1197 18.1795 17.8187 18.4805 17.4474 18.4805C17.0761 18.4805 16.7752 18.1795 16.7752 17.8083V14.447C16.7752 14.0757 17.0761 13.7747 17.4474 13.7747Z" stroke="#6B4FDB" stroke-width="0.919924" stroke-linecap="round"/>
</svg>