<svg width="16" height="15" viewBox="0 0 16 15" fill="none" xmlns="http://www.w3.org/2000/svg">
<path d="M14.6734 0.423304C14.4632 0.212645 14.1778 0.0942578 13.8803 0.0942578C13.5827 0.0942578 13.2973 0.212645 13.0871 0.423304L7.58588 5.9133L2.08462 0.412054C1.87444 0.201395 1.58908 0.0830078 1.2915 0.0830078C0.993917 0.0830078 0.70856 0.201395 0.498374 0.412054C0.059624 0.850804 0.059624 1.55955 0.498374 1.9983L5.99963 7.49955L0.498374 13.0008C0.059624 13.4396 0.059624 14.1483 0.498374 14.5871C0.937124 15.0258 1.64587 15.0258 2.08462 14.5871L7.58588 9.0858L13.0871 14.5871C13.5259 15.0258 14.2346 15.0258 14.6734 14.5871C15.1121 14.1483 15.1121 13.4396 14.6734 13.0008L9.17213 7.49955L14.6734 1.9983C15.1009 1.5708 15.1009 0.850804 14.6734 0.423304Z" fill="#2A577F"/>
</svg>
