<svg width="55" height="54" viewBox="0 0 55 54" fill="none" xmlns="http://www.w3.org/2000/svg">
<path d="M33.7982 7.57743C33.7982 7.57743 32.4527 6.68597 32.0042 5.34878C31.5557 4.01158 30.6587 1.33719 30.6587 1.33719C30.6587 1.33719 30.2102 0 27.5192 0C24.8282 0 24.3797 1.33719 24.3797 1.33719C24.3797 1.33719 23.4827 4.01158 23.0342 5.34878C22.5857 6.68597 21.2402 7.57743 21.2402 7.57743" fill="white"/>
<path d="M19.3562 8.24837C19.3562 8.24837 17.7416 8.42666 16.5306 7.66892C15.3197 6.91118 12.8977 5.44026 12.8977 5.44026C12.8977 5.44026 11.6868 4.68252 9.62366 6.42087C7.56055 8.15923 8.09875 9.45185 8.09875 9.45185C8.09875 9.45185 9.13031 12.0817 9.66851 13.3743C10.2067 14.6669 9.71336 16.227 9.71336 16.227" fill="white"/>
<path d="M45.3236 16.2661C45.3236 16.2661 44.8751 14.706 45.3684 13.4134C45.9067 12.1208 46.9382 9.49095 46.9382 9.49095C46.9382 9.49095 47.4764 8.19833 45.4133 6.45998C43.3502 4.72163 42.1392 5.47937 42.1392 5.47937C42.1392 5.47937 39.7173 6.95028 38.5063 7.70803C37.2954 8.46577 35.6808 8.28748 35.6808 8.28748" fill="white"/>
<path d="M48.4638 30.3092C48.4638 30.3092 49.0917 28.8383 50.3475 28.1697C51.6033 27.5011 54.0701 26.1639 54.0701 26.1639C54.0701 26.1639 55.3259 25.4953 54.8325 22.8655C54.384 20.2357 52.9488 20.0128 52.9488 20.0128C52.9488 20.0128 50.1232 19.6116 48.7329 19.3888C47.3425 19.1659 46.2213 18.007 46.2213 18.007" fill="white"/>
<path d="M8.72611 18.007C8.72611 18.007 7.60485 19.1659 6.21449 19.3888C4.82413 19.6116 1.99856 20.0128 1.99856 20.0128C1.99856 20.0128 0.608202 20.1911 0.114848 22.8209C-0.378505 25.4507 0.877303 26.1193 0.877303 26.1193C0.877303 26.1193 3.38892 27.4565 4.59988 28.1251C5.85569 28.7937 6.48359 30.2646 6.48359 30.2646" fill="white"/>
<path d="M6.88742 32.2704C6.88742 32.2704 6.79772 33.875 5.85586 34.9448C4.914 36.0145 3.03029 38.1095 3.03029 38.1095C3.03029 38.1095 2.08843 39.1792 3.43394 41.497C4.77945 43.8148 6.16981 43.5474 6.16981 43.5474C6.16981 43.5474 8.95053 42.9679 10.3409 42.7005C11.7312 42.4331 13.1665 43.1462 13.1665 43.1462" fill="white"/>
<path d="M14.7357 44.3544C14.7357 44.3544 15.6776 45.6471 15.6328 47.0734C15.5879 48.4997 15.4982 51.3079 15.4982 51.3079C15.4982 51.3079 15.4534 52.7342 18.0098 53.6257C20.5214 54.5617 21.4184 53.4474 21.4184 53.4474C21.4184 53.4474 23.1676 51.2187 24.0646 50.149C24.9616 49.0346 26.5314 48.678 26.5314 48.678" fill="white"/>
<path d="M28.5047 48.6283C28.5047 48.6283 30.0745 49.0294 30.9715 50.0992C31.8685 51.1689 33.6177 53.3976 33.6177 53.3976C33.6177 53.3976 34.5147 54.5119 37.0263 53.5759C39.5379 52.6399 39.5379 51.2581 39.5379 51.2581C39.5379 51.2581 39.4482 48.45 39.4034 47.0236C39.3585 45.5973 40.3004 44.3047 40.3004 44.3047" fill="white"/>
<path d="M41.8704 43.0609C41.8704 43.0609 43.3056 42.3477 44.6959 42.6152C46.0863 42.8826 48.867 43.4621 48.867 43.4621C48.867 43.4621 50.2574 43.7295 51.6029 41.4117C52.9484 39.0939 52.0065 38.0241 52.0065 38.0241C52.0065 38.0241 50.1228 35.9292 49.181 34.8594C48.2391 33.7897 48.1494 32.1851 48.1494 32.1851" fill="white"/>
<path d="M33.7982 7.57743C33.7982 7.57743 32.4527 6.68597 32.0042 5.34878C31.5557 4.01158 30.6587 1.33719 30.6587 1.33719C30.6587 1.33719 30.2102 0 27.5192 0C24.8282 0 24.3797 1.33719 24.3797 1.33719C24.3797 1.33719 23.4827 4.01158 23.0342 5.34878C22.5857 6.68597 21.2402 7.57743 21.2402 7.57743" fill="white"/>
<path d="M19.3562 8.24837C19.3562 8.24837 17.7416 8.42666 16.5306 7.66892C15.3197 6.91118 12.8977 5.44026 12.8977 5.44026C12.8977 5.44026 11.6868 4.68252 9.62366 6.42087C7.56055 8.15923 8.09875 9.45185 8.09875 9.45185C8.09875 9.45185 9.13031 12.0817 9.66851 13.3743C10.2067 14.6669 9.71336 16.227 9.71336 16.227" fill="white"/>
<path d="M45.3236 16.2661C45.3236 16.2661 44.8751 14.706 45.3684 13.4134C45.9067 12.1208 46.9382 9.49095 46.9382 9.49095C46.9382 9.49095 47.4764 8.19833 45.4133 6.45998C43.3502 4.72163 42.1392 5.47937 42.1392 5.47937C42.1392 5.47937 39.7173 6.95028 38.5063 7.70803C37.2954 8.46577 35.6808 8.28748 35.6808 8.28748" fill="white"/>
<path d="M48.4638 30.3092C48.4638 30.3092 49.0917 28.8383 50.3475 28.1697C51.6033 27.5011 54.0701 26.1639 54.0701 26.1639C54.0701 26.1639 55.3259 25.4953 54.8325 22.8655C54.384 20.2357 52.9488 20.0128 52.9488 20.0128C52.9488 20.0128 50.1232 19.6116 48.7329 19.3888C47.3425 19.1659 46.2213 18.007 46.2213 18.007" fill="white"/>
<path d="M8.72611 18.007C8.72611 18.007 7.60485 19.1659 6.21449 19.3888C4.82413 19.6116 1.99856 20.0128 1.99856 20.0128C1.99856 20.0128 0.608202 20.1911 0.114848 22.8209C-0.378505 25.4507 0.877303 26.1193 0.877303 26.1193C0.877303 26.1193 3.38892 27.4565 4.59988 28.1251C5.85569 28.7937 6.48359 30.2646 6.48359 30.2646" fill="white"/>
<path d="M6.88742 32.2704C6.88742 32.2704 6.79772 33.875 5.85586 34.9448C4.914 36.0145 3.03029 38.1095 3.03029 38.1095C3.03029 38.1095 2.08843 39.1792 3.43394 41.497C4.77945 43.8148 6.16981 43.5474 6.16981 43.5474C6.16981 43.5474 8.95053 42.9679 10.3409 42.7005C11.7312 42.4331 13.1665 43.1462 13.1665 43.1462" fill="white"/>
<path d="M14.7357 44.3544C14.7357 44.3544 15.6776 45.6471 15.6328 47.0734C15.5879 48.4997 15.4982 51.3079 15.4982 51.3079C15.4982 51.3079 15.4534 52.7342 18.0098 53.6257C20.5214 54.5617 21.4184 53.4474 21.4184 53.4474C21.4184 53.4474 23.1676 51.2187 24.0646 50.149C24.9616 49.0346 26.5314 48.678 26.5314 48.678" fill="white"/>
<path d="M28.5047 48.6283C28.5047 48.6283 30.0745 49.0294 30.9715 50.0992C31.8685 51.1689 33.6177 53.3976 33.6177 53.3976C33.6177 53.3976 34.5147 54.5119 37.0263 53.5759C39.5379 52.6399 39.5379 51.2581 39.5379 51.2581C39.5379 51.2581 39.4482 48.45 39.4034 47.0236C39.3585 45.5973 40.3004 44.3047 40.3004 44.3047" fill="white"/>
<path d="M41.8704 43.0609C41.8704 43.0609 43.3056 42.3477 44.6959 42.6152C46.0863 42.8826 48.867 43.4621 48.867 43.4621C48.867 43.4621 50.2574 43.7295 51.6029 41.4117C52.9484 39.0939 52.0065 38.0241 52.0065 38.0241C52.0065 38.0241 50.1228 35.9292 49.181 34.8594C48.2391 33.7897 48.1494 32.1851 48.1494 32.1851" fill="white"/>
<path d="M27.5188 6.68662C15.8577 6.68662 6.43912 16.047 6.43912 27.636C6.43912 39.225 15.8577 48.5854 27.5188 48.5854C39.1798 48.5854 48.5984 39.225 48.5984 27.636C48.5984 16.047 39.1798 6.68662 27.5188 6.68662ZM27.5188 47.6939C16.351 47.6939 7.33613 38.7347 7.33613 27.636C7.33613 16.5373 16.351 7.57808 27.5188 7.57808C38.6865 7.57808 47.7014 16.5373 47.7014 27.636C47.7014 38.7347 38.6865 47.6939 27.5188 47.6939Z" fill="white"/>
<path d="M27.5188 10.2489C17.8759 10.2489 10.0271 18.0492 10.0271 27.6324C10.0271 37.2157 17.8759 45.016 27.5188 45.016C37.1616 45.016 45.0104 37.2157 45.0104 27.6324C45.0104 18.0492 37.1616 10.2489 27.5188 10.2489ZM27.5188 32.9812C24.5586 32.9812 22.1367 30.5743 22.1367 27.6324C22.1367 24.6906 24.5586 22.2837 27.5188 22.2837C30.4789 22.2837 32.9008 24.6906 32.9008 27.6324C32.9008 30.5743 30.4789 32.9812 27.5188 32.9812Z" fill="white"/>
</svg>
