<svg width="100" height="54" xmlns="http://www.w3.org/2000/svg">
  <path id="svg_1" fill="white" d="m33.7982,7.57743c0,0 -1.3455,-0.89146 -1.794,-2.22865c-0.4485,-1.3372 -1.3455,-4.01159 -1.3455,-4.01159c0,0 -0.4485,-1.33719 -3.1395,-1.33719c-2.691,0 -3.1395,1.33719 -3.1395,1.33719c0,0 -0.897,2.67439 -1.3455,4.01159c-0.4485,1.33719 -1.794,2.22865 -1.794,2.22865"/>
  <path id="svg_2" fill="white" d="m19.3562,8.24837c0,0 -1.6146,0.17829 -2.8256,-0.57945c-1.2109,-0.75774 -3.6329,-2.22866 -3.6329,-2.22866c0,0 -1.2109,-0.75774 -3.27404,0.98061c-2.06311,1.73836 -1.52491,3.03098 -1.52491,3.03098c0,0 1.03156,2.62985 1.56976,3.92245c0.53819,1.2926 0.04485,2.8527 0.04485,2.8527"/>
  <path id="svg_3" fill="white" d="m45.3236,16.2661c0,0 -0.4485,-1.5601 0.0448,-2.8527c0.5383,-1.2926 1.5698,-3.92245 1.5698,-3.92245c0,0 0.5382,-1.29262 -1.5249,-3.03097c-2.0631,-1.73835 -3.2741,-0.98061 -3.2741,-0.98061c0,0 -2.4219,1.47091 -3.6329,2.22866c-1.2109,0.75774 -2.8255,0.57945 -2.8255,0.57945"/>
  <path id="svg_4" fill="white" d="m48.4638,30.3092c0,0 0.6279,-1.4709 1.8837,-2.1395c1.2558,-0.6686 3.7226,-2.0058 3.7226,-2.0058c0,0 1.2558,-0.6686 0.7624,-3.2984c-0.4485,-2.6298 -1.8837,-2.8527 -1.8837,-2.8527c0,0 -2.8256,-0.4012 -4.2159,-0.624c-1.3904,-0.2229 -2.5116,-1.3818 -2.5116,-1.3818"/>
  <path id="svg_5" fill="white" d="m8.72611,18.007c0,0 -1.12126,1.1589 -2.51162,1.3818c-1.39036,0.2228 -4.21593,0.624 -4.21593,0.624c0,0 -1.39036,0.1783 -1.88371,2.8081c-0.49336,2.6298 0.76245,3.2984 0.76245,3.2984c0,0 2.51162,1.3372 3.72258,2.0058c1.25581,0.6686 1.88371,2.1395 1.88371,2.1395"/>
  <path id="svg_6" fill="white" d="m6.88742,32.2704c0,0 -0.0897,1.6046 -1.03156,2.6744c-0.94186,1.0697 -2.82557,3.1647 -2.82557,3.1647c0,0 -0.94186,1.0697 0.40365,3.3875c1.34551,2.3178 2.73587,2.0504 2.73587,2.0504c0,0 2.78072,-0.5795 4.17109,-0.8469c1.3903,-0.2674 2.8256,0.4457 2.8256,0.4457"/>
  <path id="svg_7" fill="white" d="m14.7357,44.3544c0,0 0.9419,1.2927 0.8971,2.719c-0.0449,1.4263 -0.1346,4.2345 -0.1346,4.2345c0,0 -0.0448,1.4263 2.5116,2.3178c2.5116,0.936 3.4086,-0.1783 3.4086,-0.1783c0,0 1.7492,-2.2287 2.6462,-3.2984c0.897,-1.1144 2.4668,-1.471 2.4668,-1.471"/>
  <path id="svg_8" fill="white" d="m28.5047,48.6283c0,0 1.5698,0.4011 2.4668,1.4709c0.897,1.0697 2.6462,3.2984 2.6462,3.2984c0,0 0.897,1.1143 3.4086,0.1783c2.5116,-0.936 2.5116,-2.3178 2.5116,-2.3178c0,0 -0.0897,-2.8081 -0.1345,-4.2345c-0.0449,-1.4263 0.897,-2.7189 0.897,-2.7189"/>
  <path id="svg_9" fill="white" d="m41.8704,43.0609c0,0 1.4352,-0.7132 2.8255,-0.4457c1.3904,0.2674 4.1711,0.8469 4.1711,0.8469c0,0 1.3904,0.2674 2.7359,-2.0504c1.3455,-2.3178 0.4036,-3.3876 0.4036,-3.3876c0,0 -1.8837,-2.0949 -2.8255,-3.1647c-0.9419,-1.0697 -1.0316,-2.6743 -1.0316,-2.6743"/>
  <path id="svg_10" fill="white" d="m33.7982,7.57743c0,0 -1.3455,-0.89146 -1.794,-2.22865c-0.4485,-1.3372 -1.3455,-4.01159 -1.3455,-4.01159c0,0 -0.4485,-1.33719 -3.1395,-1.33719c-2.691,0 -3.1395,1.33719 -3.1395,1.33719c0,0 -0.897,2.67439 -1.3455,4.01159c-0.4485,1.33719 -1.794,2.22865 -1.794,2.22865"/>
  <path id="svg_11" fill="white" d="m19.3562,8.24837c0,0 -1.6146,0.17829 -2.8256,-0.57945c-1.2109,-0.75774 -3.6329,-2.22866 -3.6329,-2.22866c0,0 -1.2109,-0.75774 -3.27404,0.98061c-2.06311,1.73836 -1.52491,3.03098 -1.52491,3.03098c0,0 1.03156,2.62985 1.56976,3.92245c0.53819,1.2926 0.04485,2.8527 0.04485,2.8527"/>
  <path id="svg_12" fill="white" d="m45.3236,16.2661c0,0 -0.4485,-1.5601 0.0448,-2.8527c0.5383,-1.2926 1.5698,-3.92245 1.5698,-3.92245c0,0 0.5382,-1.29262 -1.5249,-3.03097c-2.0631,-1.73835 -3.2741,-0.98061 -3.2741,-0.98061c0,0 -2.4219,1.47091 -3.6329,2.22866c-1.2109,0.75774 -2.8255,0.57945 -2.8255,0.57945"/>
  <path id="svg_13" fill="white" d="m48.4638,30.3092c0,0 0.6279,-1.4709 1.8837,-2.1395c1.2558,-0.6686 3.7226,-2.0058 3.7226,-2.0058c0,0 1.2558,-0.6686 0.7624,-3.2984c-0.4485,-2.6298 -1.8837,-2.8527 -1.8837,-2.8527c0,0 -2.8256,-0.4012 -4.2159,-0.624c-1.3904,-0.2229 -2.5116,-1.3818 -2.5116,-1.3818"/>
  <path id="svg_14" fill="white" d="m8.72611,18.007c0,0 -1.12126,1.1589 -2.51162,1.3818c-1.39036,0.2228 -4.21593,0.624 -4.21593,0.624c0,0 -1.39036,0.1783 -1.88371,2.8081c-0.49336,2.6298 0.76245,3.2984 0.76245,3.2984c0,0 2.51162,1.3372 3.72258,2.0058c1.25581,0.6686 1.88371,2.1395 1.88371,2.1395"/>
  <path id="svg_15" fill="white" d="m6.88742,32.2704c0,0 -0.0897,1.6046 -1.03156,2.6744c-0.94186,1.0697 -2.82557,3.1647 -2.82557,3.1647c0,0 -0.94186,1.0697 0.40365,3.3875c1.34551,2.3178 2.73587,2.0504 2.73587,2.0504c0,0 2.78072,-0.5795 4.17109,-0.8469c1.3903,-0.2674 2.8256,0.4457 2.8256,0.4457"/>
  <path id="svg_16" fill="white" d="m14.7357,44.3544c0,0 0.9419,1.2927 0.8971,2.719c-0.0449,1.4263 -0.1346,4.2345 -0.1346,4.2345c0,0 -0.0448,1.4263 2.5116,2.3178c2.5116,0.936 3.4086,-0.1783 3.4086,-0.1783c0,0 1.7492,-2.2287 2.6462,-3.2984c0.897,-1.1144 2.4668,-1.471 2.4668,-1.471"/>
  <path id="svg_17" fill="white" d="m28.5047,48.6283c0,0 1.5698,0.4011 2.4668,1.4709c0.897,1.0697 2.6462,3.2984 2.6462,3.2984c0,0 0.897,1.1143 3.4086,0.1783c2.5116,-0.936 2.5116,-2.3178 2.5116,-2.3178c0,0 -0.0897,-2.8081 -0.1345,-4.2345c-0.0449,-1.4263 0.897,-2.7189 0.897,-2.7189"/>
  <path id="svg_18" fill="white" d="m41.8704,43.0609c0,0 1.4352,-0.7132 2.8255,-0.4457c1.3904,0.2674 4.1711,0.8469 4.1711,0.8469c0,0 1.3904,0.2674 2.7359,-2.0504c1.3455,-2.3178 0.4036,-3.3876 0.4036,-3.3876c0,0 -1.8837,-2.0949 -2.8255,-3.1647c-0.9419,-1.0697 -1.0316,-2.6743 -1.0316,-2.6743"/>
  <path id="svg_19" fill="white" d="m27.5188,6.68662c-11.6611,0 -21.07968,9.36038 -21.07968,20.94938c0,11.589 9.41858,20.9494 21.07968,20.9494c11.661,0 21.0796,-9.3604 21.0796,-20.9494c0,-11.589 -9.4186,-20.94938 -21.0796,-20.94938zm0,41.00728c-11.1678,0 -20.18267,-8.9592 -20.18267,-20.0579c0,-11.0987 9.01487,-20.05792 20.18267,-20.05792c11.1677,0 20.1826,8.95922 20.1826,20.05792c0,11.0987 -9.0149,20.0579 -20.1826,20.0579z"/>
  <path id="svg_20" fill="white" d="m27.5188,10.2489c-9.6429,0 -17.4917,7.8003 -17.4917,17.3835c0,9.5833 7.8488,17.3836 17.4917,17.3836c9.6428,0 17.4916,-7.8003 17.4916,-17.3836c0,-9.5832 -7.8488,-17.3835 -17.4916,-17.3835zm0,22.7323c-2.9602,0 -5.3821,-2.4069 -5.3821,-5.3488c0,-2.9418 2.4219,-5.3487 5.3821,-5.3487c2.9601,0 5.382,2.4069 5.382,5.3487c0,2.9419 -2.4219,5.3488 -5.382,5.3488z"/>
  <path id="svg_21" fill="white" d="m61.711239,40.167889l5.7391,-27.02719l3.63699,0l5.77249,27.02719l-3.5703,0l-1.2345,-6.8069l-5.50558,0l-1.30131,6.8069l-3.53689,0zm5.3387,-9.5096l4.50448,0l-2.2689,-12.17889l-2.23558,12.17889zm12.55218,9.5096l0,-27.02719l6.7068,0c1.6238,0 2.914,0.3003 3.8705,0.90091c0.9788,0.57836 1.6906,1.42365 2.1355,2.53588c0.4449,1.11223 0.6673,2.45803 0.6673,4.03739c0,1.42366 -0.2558,2.65821 -0.7674,3.70371c-0.4894,1.0455 -1.2234,1.8574 -2.2022,2.4358c-0.9788,0.5561 -2.2022,0.8342 -3.6704,0.8342l-2.9696,0l0,12.5793l-3.7705,0zm3.7705,-15.282l1.7351,0c1.0899,0 1.9464,-0.1224 2.5692,-0.3671c0.6229,-0.2447 1.0678,-0.6673 1.3347,-1.2679c0.2669,-0.62287 0.4004,-1.49041 0.4004,-2.60264c0,-1.29019 -0.1001,-2.28007 -0.3003,-2.96965c-0.178,-0.68959 -0.5672,-1.16784 -1.1679,-1.43478c-0.6006,-0.26693 -1.5348,-0.4004 -2.8028,-0.4004l-1.7684,0l0,9.04247zm12.4615,15.282l0,-27.02719l3.7037,0l0,27.02719l-3.7037,0z"/>
</svg>
