<svg width="56" height="60" viewBox="0 0 56 60" fill="none" xmlns="http://www.w3.org/2000/svg">
    <path fill-rule="evenodd" clip-rule="evenodd" d="M26.8897 5.8626C26.889 5.86297 26.8882 5.86334 26.8875 5.86371L6.89303 15.861L6.8875 15.8637C6.47098 16.0707 6.12046 16.3897 5.87535 16.785C5.63032 17.1802 5.50033 17.6358 5.5 18.1007C5.5 18.1006 5.5 18.1009 5.5 18.1007V41.9173C5.49676 42.3832 5.62372 42.8407 5.86667 43.2383C6.10923 43.6352 6.4577 43.9566 6.87289 44.1662C6.87221 44.1659 6.87357 44.1666 6.87289 44.1662L26.868 54.1638C27.2154 54.3376 27.5991 54.4285 27.9875 54.4285C28.3759 54.4285 28.7589 54.338 29.1063 54.1642L49.107 44.1638L49.1125 44.1611C49.529 43.9541 49.8795 43.635 50.1247 43.2398C50.3698 42.8445 50.4998 42.3887 50.5 41.9236V18.1012C50.4998 17.6361 50.3698 17.1803 50.1247 16.785C49.8795 16.3897 49.529 16.0707 49.1125 15.8637L49.107 15.861L29.1125 5.86371C29.1118 5.86334 29.111 5.86297 29.1103 5.8626C28.7652 5.69155 28.3852 5.60254 28 5.60254C27.6148 5.60254 27.2348 5.69155 26.8897 5.8626ZM30.225 3.62489L31.3375 1.38606C30.3004 0.870718 29.1581 0.602539 28 0.602539C26.8419 0.602539 25.6996 0.870718 24.6625 1.38606L24.657 1.38882L4.6625 11.3861C4.66147 11.3866 4.66044 11.3871 4.65941 11.3876C3.41122 12.0085 2.36078 12.9651 1.62605 14.15C0.890705 15.3358 0.50074 16.7032 0.499999 18.0986L0.499999 41.8921C0.492074 43.2865 0.873061 44.6556 1.60026 45.8456C2.32913 47.0383 3.37679 48.0035 4.62506 48.6325L4.63197 48.636L24.6313 58.6356C25.6732 59.157 26.8223 59.4285 27.9875 59.4285C29.1524 59.4285 30.3013 59.1571 31.343 58.636C31.3433 58.6358 31.3428 58.6361 31.343 58.636L51.3375 48.6387C51.3383 48.6383 51.3392 48.6379 51.34 48.6375C52.5884 48.0165 53.6391 47.0598 54.374 45.8748C55.1093 44.689 55.4993 43.3215 55.5 41.9262V18.0999C55.4993 16.7046 55.1093 15.3358 54.374 14.15C53.6392 12.9652 52.5888 12.0086 51.3407 11.3877C51.3396 11.3871 51.3386 11.3866 51.3375 11.3861L31.343 1.38882L30.225 3.62489Z" fill="white"/>
    <path fill-rule="evenodd" clip-rule="evenodd" d="M1.56393 14.2819C2.1814 13.0469 3.68309 12.5463 4.91803 13.1638L28 24.7048L51.082 13.1638C52.3169 12.5463 53.8186 13.0469 54.4361 14.2819C55.0535 15.5168 54.553 17.0185 53.318 17.636L29.118 29.736C28.4142 30.0879 27.5858 30.0879 26.882 29.736L2.68196 17.636C1.44702 17.0185 0.946458 15.5168 1.56393 14.2819Z" fill="white"/>
    <path fill-rule="evenodd" clip-rule="evenodd" d="M28 24.9999C29.3807 24.9999 30.5 26.1192 30.5 27.4999V56.8999C30.5 58.2806 29.3807 59.3999 28 59.3999C26.6193 59.3999 25.5 58.2806 25.5 56.8999V27.4999C25.5 26.1192 26.6193 24.9999 28 24.9999Z" fill="white"/>
    <path fill-rule="evenodd" clip-rule="evenodd" d="M13.2639 7.63185C13.8814 6.39691 15.3831 5.89635 16.618 6.51382L41.618 19.0138C42.853 19.6313 43.3535 21.133 42.7361 22.3679C42.1186 23.6029 40.6169 24.1034 39.382 23.486L14.382 10.986C13.147 10.3685 12.6465 8.8668 13.2639 7.63185Z" fill="white"/>
</svg>